<?xml version="1.0" encoding="utf-8"?>
<svg version="1.1" xmlns:xlink="http://www.w3.org/1999/xlink" width="13px" height="9px" xmlns="http://www.w3.org/2000/svg">
  <g transform="matrix(1 0 0 1 -370 -145 )">
    <path d="M 7.11558044806517 8.5258064516129  C 6.79344874405974 8.84193548387097  6.58825526137135 9  6.5 9  C 6.41174473862865 9  6.20655125594026 8.84193548387097  5.88441955193483 8.5258064516129  C 5.5622878479294 8.20967741935484  5.40122199592668 8.00860215053763  5.40122199592668 7.92258064516129  C 5.40122199592668 7.78494623655914  5.53912084181942 7.66881720430108  5.81491853360489 7.5741935483871  C 6.09071622539036 7.47956989247312  6.31907671418873 7.43225806451613  6.5 7.43225806451613  C 6.68092328581127 7.43225806451613  6.90928377460964 7.47956989247312  7.18508146639511 7.5741935483871  C 7.46087915818058 7.66881720430108  7.59877800407332 7.78494623655914  7.59877800407332 7.92258064516129  C 7.59877800407332 8.00860215053763  7.4377121520706 8.20967741935484  7.11558044806517 8.5258064516129  Z M 8.90605906313646 6.76774193548387  C 8.57289545145961 7.09032258064516  8.36659877800407 7.25161290322581  8.28716904276986 7.25161290322581  C 8.27834351663272 7.25161290322581  8.19008825526137 7.19784946236559  8.0224032586558 7.09032258064516  C 7.85471826205024 6.98279569892473  7.63077053632044 6.8752688172043  7.35056008146639 6.76774193548387  C 7.07034962661236 6.66021505376344  6.78682959945689 6.60645161290323  6.5 6.60645161290323  C 6.21317040054311 6.60645161290323  5.92965037338764 6.66021505376344  5.6494399185336 6.76774193548387  C 5.36922946367957 6.8752688172043  5.1463849287169 6.98279569892473  4.98090631364562 7.09032258064516  C 4.81542769857434 7.19784946236559  4.72606924643584 7.25161290322581  4.71283095723014 7.25161290322581  C 4.63340122199593 7.25161290322581  4.42710454854039 7.09032258064516  4.09394093686354 6.76774193548387  C 3.76077732518669 6.44516129032258  3.59419551934827 6.24516129032258  3.59419551934827 6.16774193548387  C 3.59419551934827 6.11182795698925  3.61625933469111 6.06236559139785  3.66038696537678 6.01935483870968  C 4.00458248472505 5.68817204301075  4.43703326544467 5.42795698924731  4.95773930753564 5.23870967741936  C 5.47844534962661 5.0494623655914  5.99253224711473 4.95483870967742  6.5 4.95483870967742  C 7.00746775288527 4.95483870967742  7.52155465037339 5.0494623655914  8.04226069246436 5.23870967741936  C 8.56296673455533 5.42795698924731  8.99541751527495 5.68817204301075  9.33961303462322 6.01935483870968  C 9.38374066530889 6.06236559139785  9.40580448065173 6.11182795698925  9.40580448065173 6.16774193548387  C 9.40580448065173 6.24516129032258  9.23922267481331 6.44516129032258  8.90605906313646 6.76774193548387  Z M 10.7031568228106 5.01290322580645  C 10.372199592668 5.33548387096774  10.1692124915139 5.49677419354839  10.0941955193483 5.49677419354839  C 10.045655125594 5.49677419354839  9.9949083503055 5.47956989247312  9.94195519348269 5.44516129032258  C 9.3418194161575 4.99354838709677  8.78581126951799 4.66129032258065  8.27393075356415 4.44838709677419  C 7.76205023761032 4.23548387096774  7.17073998642227 4.12903225806452  6.5 4.12903225806452  C 6.12491513917176 4.12903225806452  5.74872708757638 4.17634408602151  5.37143584521385 4.27096774193548  C 4.99414460285132 4.36559139784946  4.66539375424304 4.47956989247312  4.385183299389 4.61290322580645  C 4.10497284453496 4.74623655913978  3.85454854039375 4.87956989247312  3.63391038696538 5.01290322580645  C 3.413272233537 5.14623655913978  3.23896809232858 5.26021505376344  3.11099796334012 5.35483870967742  C 2.98302783435166 5.4494623655914  2.91463000678887 5.49677419354839  2.90580448065173 5.49677419354839  C 2.83078750848608 5.49677419354839  2.62780040733198 5.33548387096774  2.29684317718941 5.01290322580645  C 1.96588594704684 4.69032258064516  1.80040733197556 4.49032258064516  1.80040733197556 4.41290322580645  C 1.80040733197556 4.36129032258065  1.8224711473184 4.31397849462366  1.86659877800407 4.27096774193548  C 2.44908350305499 3.70322580645161  3.1551255940258 3.26236559139785  3.9847250509165 2.94838709677419  C 4.8143245078072 2.63440860215054  5.65274949083503 2.47741935483871  6.5 2.47741935483871  C 7.34725050916497 2.47741935483871  8.1856754921928 2.63440860215054  9.0152749490835 2.94838709677419  C 9.8448744059742 3.26236559139785  10.550916496945 3.70322580645161  11.1334012219959 4.27096774193548  C 11.1775288526816 4.31397849462366  11.1995926680244 4.36129032258065  11.1995926680244 4.41290322580645  C 11.1995926680244 4.49032258064516  11.0341140529532 4.69032258064516  10.7031568228106 5.01290322580645  Z M 12.5002545824847 3.26451612903226  C 12.1670909708079 3.58709677419355  11.9630006788866 3.74838709677419  11.887983706721 3.74838709677419  C 11.8394433129667 3.74838709677419  11.7909029192125 3.72903225806452  11.7423625254582 3.69032258064516  C 10.9524779361847 3.01505376344086  10.1328071961982 2.50645161290323  9.28335030549898 2.16451612903226  C 8.43389341479973 1.82258064516129  7.5061099796334 1.65161290322581  6.5 1.65161290322581  C 5.4938900203666 1.65161290322581  4.56610658520027 1.82258064516129  3.71664969450102 2.16451612903226  C 2.86719280380177 2.50645161290323  2.04752206381534 3.01505376344086  1.25763747454175 3.69032258064516  C 1.20909708078751 3.72903225806452  1.16055668703327 3.74838709677419  1.11201629327902 3.74838709677419  C 1.03699932111337 3.74838709677419  0.832909029192125 3.58709677419355  0.499745417515275 3.26451612903226  C 0.166581805838425 2.94193548387097  0 2.74193548387097  0 2.66451612903226  C 0 2.60860215053763  0.0220638153428378 2.55913978494624  0.0661914460285132 2.51612903225806  C 0.891378139850645 1.71612903225806  1.87321792260692 1.09677419354839  3.01171079429735 0.658064516129032  C 4.15020366598778 0.219354838709677  5.31296673455533 0  6.5 0  C 7.68703326544467 0  8.84979633401222 0.219354838709677  9.98828920570265 0.658064516129032  C 11.1267820773931 1.09677419354839  12.1086218601494 1.71612903225806  12.9338085539715 2.51612903225806  C 12.9779361846572 2.55913978494624  13 2.60860215053763  13 2.66451612903226  C 13 2.74193548387097  12.8334181941616 2.94193548387097  12.5002545824847 3.26451612903226  Z " fill-rule="nonzero" fill="#000000" stroke="none" transform="matrix(1 0 0 1 370 145 )" />
  </g>
</svg>