<?xml version="1.0" encoding="utf-8"?>
<svg version="1.1" xmlns:xlink="http://www.w3.org/1999/xlink" width="14px" height="8px" xmlns="http://www.w3.org/2000/svg">
  <g transform="matrix(1 0 0 1 -388 -146 )">
    <path d="M 7 6.4  L 1.55555555555556 6.4  L 1.55555555555556 1.6  L 7 1.6  L 7 6.4  Z M 13.2222222222222 1  L 13.2222222222222 2  C 13.4369212962963 2  13.6202256944444 2.078125  13.7721354166667 2.234375  C 13.9240451388889 2.390625  14 2.57916666666667  14 2.8  L 14 5.2  C 14 5.42083333333333  13.9240451388889 5.609375  13.7721354166667 5.765625  C 13.6202256944444 5.921875  13.4369212962963 6  13.2222222222222 6  L 13.2222222222222 7  C 13.2222222222222 7.275  13.127025462963 7.51041666666667  12.9366319444444 7.70625  C 12.7462384259259 7.90208333333333  12.5173611111111 8  12.25 8  L 0.972222222222222 8  C 0.704861111111111 8  0.475983796296296 7.90208333333333  0.285590277777778 7.70625  C 0.0951967592592593 7.51041666666667  0 7.275  0 7  L 0 1  C 0 0.725  0.0951967592592593 0.489583333333333  0.285590277777778 0.29375  C 0.475983796296296 0.0979166666666655  0.704861111111111 0  0.972222222222222 0  L 12.25 0  C 12.5173611111111 0  12.7462384259259 0.0979166666666655  12.9366319444444 0.29375  C 13.127025462963 0.489583333333333  13.2222222222222 0.725  13.2222222222222 1  Z M 12.4444444444444 5.2  L 13.2222222222222 5.2  L 13.2222222222222 2.8  L 12.4444444444444 2.8  L 12.4444444444444 1  C 12.4444444444444 0.941666666666666  12.4262152777778 0.89375  12.3897569444444 0.85625  C 12.3532986111111 0.81875  12.306712962963 0.8  12.25 0.8  L 0.972222222222222 0.8  C 0.915509259259259 0.8  0.868923611111111 0.81875  0.832465277777778 0.85625  C 0.796006944444444 0.89375  0.777777777777778 0.941666666666666  0.777777777777778 1  L 0.777777777777778 7  C 0.777777777777778 7.05833333333333  0.796006944444444 7.10625  0.832465277777778 7.14375  C 0.868923611111111 7.18125  0.915509259259259 7.2  0.972222222222222 7.2  L 12.25 7.2  C 12.306712962963 7.2  12.3532986111111 7.18125  12.3897569444444 7.14375  C 12.4262152777778 7.10625  12.4444444444444 7.05833333333333  12.4444444444444 7  L 12.4444444444444 5.2  Z " fill-rule="nonzero" fill="#000000" stroke="none" transform="matrix(1 0 0 1 388 146 )" />
  </g>
</svg>