<?xml version="1.0" encoding="utf-8"?>
<svg version="1.1" xmlns:xlink="http://www.w3.org/1999/xlink" width="10px" height="9px" xmlns="http://www.w3.org/2000/svg">
  <g transform="matrix(1 0 0 1 -355 -145 )">
    <path d="M 1.37834821428571 7.552734375  C 1.41183035714286 7.587890625  1.42857142857143 7.6328125  1.42857142857143 7.6875  L 1.42857142857143 8.8125  C 1.42857142857143 8.8671875  1.41183035714286 8.912109375  1.37834821428571 8.947265625  C 1.34486607142857 8.982421875  1.30208333333333 9  1.25 9  L 0.178571428571429 9  C 0.126488095238095 9  0.0837053571428572 8.982421875  0.0502232142857143 8.947265625  C 0.0167410714285714 8.912109375  0 8.8671875  0 8.8125  L 0 7.6875  C 0 7.6328125  0.0167410714285714 7.587890625  0.0502232142857143 7.552734375  C 0.0837053571428572 7.517578125  0.126488095238095 7.5  0.178571428571429 7.5  L 1.25 7.5  C 1.30208333333333 7.5  1.34486607142857 7.517578125  1.37834821428571 7.552734375  Z M 3.52120535714286 6.802734375  C 3.5546875 6.837890625  3.57142857142857 6.8828125  3.57142857142857 6.9375  L 3.57142857142857 8.8125  C 3.57142857142857 8.8671875  3.5546875 8.912109375  3.52120535714286 8.947265625  C 3.48772321428571 8.982421875  3.44494047619048 9  3.39285714285714 9  L 2.32142857142857 9  C 2.26934523809524 9  2.2265625 8.982421875  2.19308035714286 8.947265625  C 2.15959821428571 8.912109375  2.14285714285714 8.8671875  2.14285714285714 8.8125  L 2.14285714285714 6.9375  C 2.14285714285714 6.8828125  2.15959821428571 6.837890625  2.19308035714286 6.802734375  C 2.2265625 6.767578125  2.26934523809524 6.75  2.32142857142857 6.75  L 3.39285714285714 6.75  C 3.44494047619048 6.75  3.48772321428571 6.767578125  3.52120535714286 6.802734375  Z M 5.6640625 5.302734375  C 5.69754464285714 5.337890625  5.71428571428571 5.3828125  5.71428571428571 5.4375  L 5.71428571428571 8.8125  C 5.71428571428571 8.8671875  5.69754464285714 8.912109375  5.6640625 8.947265625  C 5.63058035714286 8.982421875  5.58779761904762 9  5.53571428571429 9  L 4.46428571428571 9  C 4.41220238095238 9  4.36941964285714 8.982421875  4.3359375 8.947265625  C 4.30245535714286 8.912109375  4.28571428571429 8.8671875  4.28571428571429 8.8125  L 4.28571428571429 5.4375  C 4.28571428571429 5.3828125  4.30245535714286 5.337890625  4.3359375 5.302734375  C 4.36941964285714 5.267578125  4.41220238095238 5.25  4.46428571428571 5.25  L 5.53571428571429 5.25  C 5.58779761904762 5.25  5.63058035714286 5.267578125  5.6640625 5.302734375  Z M 7.80691964285714 3.052734375  C 7.84040178571429 3.087890625  7.85714285714286 3.1328125  7.85714285714286 3.1875  L 7.85714285714286 8.8125  C 7.85714285714286 8.8671875  7.84040178571429 8.912109375  7.80691964285714 8.947265625  C 7.7734375 8.982421875  7.73065476190476 9  7.67857142857143 9  L 6.60714285714286 9  C 6.55505952380952 9  6.51227678571429 8.982421875  6.47879464285714 8.947265625  C 6.4453125 8.912109375  6.42857142857143 8.8671875  6.42857142857143 8.8125  L 6.42857142857143 3.1875  C 6.42857142857143 3.1328125  6.4453125 3.087890625  6.47879464285714 3.052734375  C 6.51227678571429 3.017578125  6.55505952380952 3  6.60714285714286 3  L 7.67857142857143 3  C 7.73065476190476 3  7.7734375 3.017578125  7.80691964285714 3.052734375  Z M 9.94977678571429 0.052734375  C 9.98325892857143 0.087890625  10 0.132812499999999  10 0.1875  L 10 8.8125  C 10 8.8671875  9.98325892857143 8.912109375  9.94977678571429 8.947265625  C 9.91629464285714 8.982421875  9.87351190476191 9  9.82142857142857 9  L 8.75 9  C 8.69791666666667 9  8.65513392857143 8.982421875  8.62165178571429 8.947265625  C 8.58816964285714 8.912109375  8.57142857142857 8.8671875  8.57142857142857 8.8125  L 8.57142857142857 0.1875  C 8.57142857142857 0.132812499999999  8.58816964285714 0.087890625  8.62165178571429 0.052734375  C 8.65513392857143 0.017578125  8.69791666666667 0  8.75 0  L 9.82142857142857 0  C 9.87351190476191 0  9.91629464285714 0.017578125  9.94977678571429 0.052734375  Z " fill-rule="nonzero" fill="#000000" stroke="none" transform="matrix(1 0 0 1 355 145 )" />
  </g>
</svg>