<?xml version="1.0" encoding="utf-8"?>
<svg version="1.1" xmlns:xlink="http://www.w3.org/1999/xlink" width="23px" height="21px" xmlns="http://www.w3.org/2000/svg">
  <defs>
    <mask fill="white" id="clip128">
      <path d="M 11.5 9.883125  C 11.7856570512821 9.883125  12.0805288461538 9.93125  12.3846153846154 10.0275  L 12.3846153846154 17.64  C 12.3846153846154 18.55  12.0344551282051 19.3375  11.3341346153846 20.0025  C 10.6338141025641 20.6675  9.80448717948718 21  8.84615384615385 21  C 7.88782051282051 21  7.05849358974359 20.6675  6.35817307692308 20.0025  C 5.65785256410256 19.3375  5.30769230769231 18.55  5.30769230769231 17.64  C 5.30769230769231 17.4125  5.39523237179487 17.215625  5.5703125 17.049375  C 5.74539262820513 16.883125  5.95272435897436 16.8  6.19230769230769 16.8  C 6.43189102564103 16.8  6.63922275641026 16.883125  6.81430288461538 17.049375  C 6.98938301282051 17.215625  7.07692307692308 17.4125  7.07692307692308 17.64  C 7.07692307692308 18.0775  7.25661057692308 18.466875  7.61598557692308 18.808125  C 7.97536057692308 19.149375  8.38541666666667 19.32  8.84615384615385 19.32  C 9.30689102564103 19.32  9.71694711538462 19.149375  10.0763221153846 18.808125  C 10.4356971153846 18.466875  10.6153846153846 18.0775  10.6153846153846 17.64  L 10.6153846153846 10.0275  C 10.9194711538462 9.93125  11.214342948718 9.883125  11.5 9.883125  Z M 22.9861778846154 10.29  C 22.9953926282051 10.3075  23 10.338125  23 10.381875  C 23 10.495625  22.9562299679487 10.5940625  22.8686899038462 10.6771875  C 22.7811498397436 10.7603125  22.677483974359 10.801875  22.5576923076923 10.801875  C 22.4563301282051 10.801875  22.3503605769231 10.758125  22.2397836538462 10.670625  C 21.7882612179487 10.268125  21.3597756410256 9.96625  20.9543269230769 9.765  C 20.5488782051282 9.56375  20.0789262820513 9.463125  19.5444711538462 9.463125  C 18.9178685897436 9.463125  18.328125 9.625  17.7752403846154 9.94875  C 17.2223557692308 10.2725  16.747796474359 10.696875  16.3515625 11.221875  C 16.2870592948718 11.309375  16.2064302884615 11.431875  16.1096754807692 11.589375  C 16.0129206730769 11.746875  15.9461137820513 11.851875  15.9092548076923 11.904375  C 15.8078926282051 12.053125  15.6788862179487 12.1275  15.5222355769231 12.1275  C 15.3563701923077 12.1275  15.2227564102564 12.053125  15.1213942307692 11.904375  C 15.0845352564103 11.851875  15.0177283653846 11.746875  14.9209735576923 11.589375  C 14.82421875 11.431875  14.7435897435897 11.309375  14.6790865384615 11.221875  C 14.2828525641026 10.696875  13.8105969551282 10.2725  13.2623197115385 9.94875  C 12.7140424679487 9.625  12.1266025641026 9.463125  11.5 9.463125  C 10.8733974358974 9.463125  10.2859575320513 9.625  9.73768028846154 9.94875  C 9.1894030448718 10.2725  8.71714743589744 10.696875  8.32091346153846 11.221875  C 8.25641025641026 11.309375  8.17578125 11.431875  8.07902644230769 11.589375  C 7.98227163461538 11.746875  7.91546474358974 11.851875  7.87860576923077 11.904375  C 7.77724358974359 12.053125  7.64362980769231 12.1275  7.47776442307692 12.1275  C 7.32111378205128 12.1275  7.19210737179487 12.053125  7.09074519230769 11.904375  C 7.05388621794872 11.851875  6.98707932692308 11.746875  6.89032451923077 11.589375  C 6.79356971153846 11.431875  6.71294070512821 11.309375  6.6484375 11.221875  C 6.25220352564103 10.696875  5.77764423076923 10.2725  5.22475961538461 9.94875  C 4.671875 9.625  4.08213141025641 9.463125  3.45552884615385 9.463125  C 2.92107371794872 9.463125  2.45112179487179 9.56375  2.04567307692308 9.765  C 1.64022435897436 9.96625  1.21173878205128 10.268125  0.760216346153846 10.670625  C 0.649639423076923 10.758125  0.543669871794872 10.801875  0.442307692307692 10.801875  C 0.322516025641026 10.801875  0.21885016025641 10.7603125  0.131310096153846 10.6771875  C 0.043770032051282 10.5940625  0 10.495625  0 10.381875  C 0 10.338125  0.00460737179487179 10.3075  0.0138221153846154 10.29  C 0.428485576923077 8.68875  1.22325721153846 7.2909375  2.39813701923077 6.0965625  C 3.57301682692308 4.9021875  4.94601362179487 4.0075  6.51712740384615 3.4125  C 8.08824118589744 2.8175  9.74919871794872 2.52  11.5 2.52  C 12.7900641025641 2.52  14.0547876602564 2.695  15.2941706730769 3.045  C 16.5335536858974 3.395  17.6692708333333 3.8915625  18.7013221153846 4.5346875  C 19.7333733974359 5.1778125  20.6295072115385 5.9959375  21.3897235576923 6.9890625  C 22.1499399038462 7.9821875  22.6820913461538 9.0825  22.9861778846154 10.29  Z M 12.1219951923077 0.249374999999999  C 12.2970753205128 0.415624999999997  12.3846153846154 0.612499999999998  12.3846153846154 0.840000000000001  L 12.3846153846154 2.12625  C 11.9975961538462 2.10875  11.7027243589744 2.1  11.5 2.1  C 11.2972756410256 2.1  11.0024038461538 2.10875  10.6153846153846 2.12625  L 10.6153846153846 0.840000000000001  C 10.6153846153846 0.612499999999998  10.7029246794872 0.415624999999997  10.8780048076923 0.249374999999999  C 11.0530849358974 0.083124999999999  11.2604166666667 0  11.5 0  C 11.7395833333333 0  11.9469150641026 0.083124999999999  12.1219951923077 0.249374999999999  Z " fill-rule="evenodd" />
    </mask>
  </defs>
  <g transform="matrix(1 0 0 1 -221 -693 )">
    <path d="M 11.5 9.883125  C 11.7856570512821 9.883125  12.0805288461538 9.93125  12.3846153846154 10.0275  L 12.3846153846154 17.64  C 12.3846153846154 18.55  12.0344551282051 19.3375  11.3341346153846 20.0025  C 10.6338141025641 20.6675  9.80448717948718 21  8.84615384615385 21  C 7.88782051282051 21  7.05849358974359 20.6675  6.35817307692308 20.0025  C 5.65785256410256 19.3375  5.30769230769231 18.55  5.30769230769231 17.64  C 5.30769230769231 17.4125  5.39523237179487 17.215625  5.5703125 17.049375  C 5.74539262820513 16.883125  5.95272435897436 16.8  6.19230769230769 16.8  C 6.43189102564103 16.8  6.63922275641026 16.883125  6.81430288461538 17.049375  C 6.98938301282051 17.215625  7.07692307692308 17.4125  7.07692307692308 17.64  C 7.07692307692308 18.0775  7.25661057692308 18.466875  7.61598557692308 18.808125  C 7.97536057692308 19.149375  8.38541666666667 19.32  8.84615384615385 19.32  C 9.30689102564103 19.32  9.71694711538462 19.149375  10.0763221153846 18.808125  C 10.4356971153846 18.466875  10.6153846153846 18.0775  10.6153846153846 17.64  L 10.6153846153846 10.0275  C 10.9194711538462 9.93125  11.214342948718 9.883125  11.5 9.883125  Z M 22.9861778846154 10.29  C 22.9953926282051 10.3075  23 10.338125  23 10.381875  C 23 10.495625  22.9562299679487 10.5940625  22.8686899038462 10.6771875  C 22.7811498397436 10.7603125  22.677483974359 10.801875  22.5576923076923 10.801875  C 22.4563301282051 10.801875  22.3503605769231 10.758125  22.2397836538462 10.670625  C 21.7882612179487 10.268125  21.3597756410256 9.96625  20.9543269230769 9.765  C 20.5488782051282 9.56375  20.0789262820513 9.463125  19.5444711538462 9.463125  C 18.9178685897436 9.463125  18.328125 9.625  17.7752403846154 9.94875  C 17.2223557692308 10.2725  16.747796474359 10.696875  16.3515625 11.221875  C 16.2870592948718 11.309375  16.2064302884615 11.431875  16.1096754807692 11.589375  C 16.0129206730769 11.746875  15.9461137820513 11.851875  15.9092548076923 11.904375  C 15.8078926282051 12.053125  15.6788862179487 12.1275  15.5222355769231 12.1275  C 15.3563701923077 12.1275  15.2227564102564 12.053125  15.1213942307692 11.904375  C 15.0845352564103 11.851875  15.0177283653846 11.746875  14.9209735576923 11.589375  C 14.82421875 11.431875  14.7435897435897 11.309375  14.6790865384615 11.221875  C 14.2828525641026 10.696875  13.8105969551282 10.2725  13.2623197115385 9.94875  C 12.7140424679487 9.625  12.1266025641026 9.463125  11.5 9.463125  C 10.8733974358974 9.463125  10.2859575320513 9.625  9.73768028846154 9.94875  C 9.1894030448718 10.2725  8.71714743589744 10.696875  8.32091346153846 11.221875  C 8.25641025641026 11.309375  8.17578125 11.431875  8.07902644230769 11.589375  C 7.98227163461538 11.746875  7.91546474358974 11.851875  7.87860576923077 11.904375  C 7.77724358974359 12.053125  7.64362980769231 12.1275  7.47776442307692 12.1275  C 7.32111378205128 12.1275  7.19210737179487 12.053125  7.09074519230769 11.904375  C 7.05388621794872 11.851875  6.98707932692308 11.746875  6.89032451923077 11.589375  C 6.79356971153846 11.431875  6.71294070512821 11.309375  6.6484375 11.221875  C 6.25220352564103 10.696875  5.77764423076923 10.2725  5.22475961538461 9.94875  C 4.671875 9.625  4.08213141025641 9.463125  3.45552884615385 9.463125  C 2.92107371794872 9.463125  2.45112179487179 9.56375  2.04567307692308 9.765  C 1.64022435897436 9.96625  1.21173878205128 10.268125  0.760216346153846 10.670625  C 0.649639423076923 10.758125  0.543669871794872 10.801875  0.442307692307692 10.801875  C 0.322516025641026 10.801875  0.21885016025641 10.7603125  0.131310096153846 10.6771875  C 0.043770032051282 10.5940625  0 10.495625  0 10.381875  C 0 10.338125  0.00460737179487179 10.3075  0.0138221153846154 10.29  C 0.428485576923077 8.68875  1.22325721153846 7.2909375  2.39813701923077 6.0965625  C 3.57301682692308 4.9021875  4.94601362179487 4.0075  6.51712740384615 3.4125  C 8.08824118589744 2.8175  9.74919871794872 2.52  11.5 2.52  C 12.7900641025641 2.52  14.0547876602564 2.695  15.2941706730769 3.045  C 16.5335536858974 3.395  17.6692708333333 3.8915625  18.7013221153846 4.5346875  C 19.7333733974359 5.1778125  20.6295072115385 5.9959375  21.3897235576923 6.9890625  C 22.1499399038462 7.9821875  22.6820913461538 9.0825  22.9861778846154 10.29  Z M 12.1219951923077 0.249374999999999  C 12.2970753205128 0.415624999999997  12.3846153846154 0.612499999999998  12.3846153846154 0.840000000000001  L 12.3846153846154 2.12625  C 11.9975961538462 2.10875  11.7027243589744 2.1  11.5 2.1  C 11.2972756410256 2.1  11.0024038461538 2.10875  10.6153846153846 2.12625  L 10.6153846153846 0.840000000000001  C 10.6153846153846 0.612499999999998  10.7029246794872 0.415624999999997  10.8780048076923 0.249374999999999  C 11.0530849358974 0.083124999999999  11.2604166666667 0  11.5 0  C 11.7395833333333 0  11.9469150641026 0.083124999999999  12.1219951923077 0.249374999999999  Z " fill-rule="nonzero" fill="#aaaaaa" stroke="none" fill-opacity="0" transform="matrix(1 0 0 1 221 693 )" />
    <path d="M 11.5 9.883125  C 11.7856570512821 9.883125  12.0805288461538 9.93125  12.3846153846154 10.0275  L 12.3846153846154 17.64  C 12.3846153846154 18.55  12.0344551282051 19.3375  11.3341346153846 20.0025  C 10.6338141025641 20.6675  9.80448717948718 21  8.84615384615385 21  C 7.88782051282051 21  7.05849358974359 20.6675  6.35817307692308 20.0025  C 5.65785256410256 19.3375  5.30769230769231 18.55  5.30769230769231 17.64  C 5.30769230769231 17.4125  5.39523237179487 17.215625  5.5703125 17.049375  C 5.74539262820513 16.883125  5.95272435897436 16.8  6.19230769230769 16.8  C 6.43189102564103 16.8  6.63922275641026 16.883125  6.81430288461538 17.049375  C 6.98938301282051 17.215625  7.07692307692308 17.4125  7.07692307692308 17.64  C 7.07692307692308 18.0775  7.25661057692308 18.466875  7.61598557692308 18.808125  C 7.97536057692308 19.149375  8.38541666666667 19.32  8.84615384615385 19.32  C 9.30689102564103 19.32  9.71694711538462 19.149375  10.0763221153846 18.808125  C 10.4356971153846 18.466875  10.6153846153846 18.0775  10.6153846153846 17.64  L 10.6153846153846 10.0275  C 10.9194711538462 9.93125  11.214342948718 9.883125  11.5 9.883125  Z " stroke-width="2" stroke="#aaaaaa" fill="none" transform="matrix(1 0 0 1 221 693 )" mask="url(#clip128)" />
    <path d="M 22.9861778846154 10.29  C 22.9953926282051 10.3075  23 10.338125  23 10.381875  C 23 10.495625  22.9562299679487 10.5940625  22.8686899038462 10.6771875  C 22.7811498397436 10.7603125  22.677483974359 10.801875  22.5576923076923 10.801875  C 22.4563301282051 10.801875  22.3503605769231 10.758125  22.2397836538462 10.670625  C 21.7882612179487 10.268125  21.3597756410256 9.96625  20.9543269230769 9.765  C 20.5488782051282 9.56375  20.0789262820513 9.463125  19.5444711538462 9.463125  C 18.9178685897436 9.463125  18.328125 9.625  17.7752403846154 9.94875  C 17.2223557692308 10.2725  16.747796474359 10.696875  16.3515625 11.221875  C 16.2870592948718 11.309375  16.2064302884615 11.431875  16.1096754807692 11.589375  C 16.0129206730769 11.746875  15.9461137820513 11.851875  15.9092548076923 11.904375  C 15.8078926282051 12.053125  15.6788862179487 12.1275  15.5222355769231 12.1275  C 15.3563701923077 12.1275  15.2227564102564 12.053125  15.1213942307692 11.904375  C 15.0845352564103 11.851875  15.0177283653846 11.746875  14.9209735576923 11.589375  C 14.82421875 11.431875  14.7435897435897 11.309375  14.6790865384615 11.221875  C 14.2828525641026 10.696875  13.8105969551282 10.2725  13.2623197115385 9.94875  C 12.7140424679487 9.625  12.1266025641026 9.463125  11.5 9.463125  C 10.8733974358974 9.463125  10.2859575320513 9.625  9.73768028846154 9.94875  C 9.1894030448718 10.2725  8.71714743589744 10.696875  8.32091346153846 11.221875  C 8.25641025641026 11.309375  8.17578125 11.431875  8.07902644230769 11.589375  C 7.98227163461538 11.746875  7.91546474358974 11.851875  7.87860576923077 11.904375  C 7.77724358974359 12.053125  7.64362980769231 12.1275  7.47776442307692 12.1275  C 7.32111378205128 12.1275  7.19210737179487 12.053125  7.09074519230769 11.904375  C 7.05388621794872 11.851875  6.98707932692308 11.746875  6.89032451923077 11.589375  C 6.79356971153846 11.431875  6.71294070512821 11.309375  6.6484375 11.221875  C 6.25220352564103 10.696875  5.77764423076923 10.2725  5.22475961538461 9.94875  C 4.671875 9.625  4.08213141025641 9.463125  3.45552884615385 9.463125  C 2.92107371794872 9.463125  2.45112179487179 9.56375  2.04567307692308 9.765  C 1.64022435897436 9.96625  1.21173878205128 10.268125  0.760216346153846 10.670625  C 0.649639423076923 10.758125  0.543669871794872 10.801875  0.442307692307692 10.801875  C 0.322516025641026 10.801875  0.21885016025641 10.7603125  0.131310096153846 10.6771875  C 0.043770032051282 10.5940625  0 10.495625  0 10.381875  C 0 10.338125  0.00460737179487179 10.3075  0.0138221153846154 10.29  C 0.428485576923077 8.68875  1.22325721153846 7.2909375  2.39813701923077 6.0965625  C 3.57301682692308 4.9021875  4.94601362179487 4.0075  6.51712740384615 3.4125  C 8.08824118589744 2.8175  9.74919871794872 2.52  11.5 2.52  C 12.7900641025641 2.52  14.0547876602564 2.695  15.2941706730769 3.045  C 16.5335536858974 3.395  17.6692708333333 3.8915625  18.7013221153846 4.5346875  C 19.7333733974359 5.1778125  20.6295072115385 5.9959375  21.3897235576923 6.9890625  C 22.1499399038462 7.9821875  22.6820913461538 9.0825  22.9861778846154 10.29  Z " stroke-width="2" stroke="#aaaaaa" fill="none" transform="matrix(1 0 0 1 221 693 )" mask="url(#clip128)" />
    <path d="M 12.1219951923077 0.249374999999999  C 12.2970753205128 0.415624999999997  12.3846153846154 0.612499999999998  12.3846153846154 0.840000000000001  L 12.3846153846154 2.12625  C 11.9975961538462 2.10875  11.7027243589744 2.1  11.5 2.1  C 11.2972756410256 2.1  11.0024038461538 2.10875  10.6153846153846 2.12625  L 10.6153846153846 0.840000000000001  C 10.6153846153846 0.612499999999998  10.7029246794872 0.415624999999997  10.8780048076923 0.249374999999999  C 11.0530849358974 0.083124999999999  11.2604166666667 0  11.5 0  C 11.7395833333333 0  11.9469150641026 0.083124999999999  12.1219951923077 0.249374999999999  Z " stroke-width="2" stroke="#aaaaaa" fill="none" transform="matrix(1 0 0 1 221 693 )" mask="url(#clip128)" />
  </g>
</svg>