<?xml version="1.0" encoding="utf-8"?>
<svg version="1.1" xmlns:xlink="http://www.w3.org/1999/xlink" width="23px" height="18px" xmlns="http://www.w3.org/2000/svg">
  <defs>
    <mask fill="white" id="clip96">
      <path d="M 4.20982142857143 13.8068181818182  C 4.68898809523809 14.2840909090909  4.92857142857143 14.8636363636364  4.92857142857143 15.5454545454545  C 4.92857142857143 16.2272727272727  4.68898809523809 16.8068181818182  4.20982142857143 17.2840909090909  C 3.73065476190476 17.7613636363636  3.14880952380952 18  2.46428571428571 18  C 1.77976190476191 18  1.19791666666667 17.7613636363636  0.71875 17.2840909090909  C 0.239583333333333 16.8068181818182  0 16.2272727272727  0 15.5454545454545  C 0 14.8636363636364  0.239583333333333 14.2840909090909  0.71875 13.8068181818182  C 1.19791666666667 13.3295454545455  1.77976190476191 13.0909090909091  2.46428571428571 13.0909090909091  C 3.14880952380952 13.0909090909091  3.73065476190476 13.3295454545455  4.20982142857143 13.8068181818182  Z M 4.20982142857143 7.26136363636364  C 4.68898809523809 7.73863636363636  4.92857142857143 8.31818181818182  4.92857142857143 9  C 4.92857142857143 9.68181818181818  4.68898809523809 10.2613636363636  4.20982142857143 10.7386363636364  C 3.73065476190476 11.2159090909091  3.14880952380952 11.4545454545455  2.46428571428571 11.4545454545455  C 1.77976190476191 11.4545454545455  1.19791666666667 11.2159090909091  0.71875 10.7386363636364  C 0.239583333333333 10.2613636363636  0 9.68181818181818  0 9  C 0 8.31818181818182  0.239583333333333 7.73863636363636  0.71875 7.26136363636364  C 1.19791666666667 6.78409090909091  1.77976190476191 6.54545454545455  2.46428571428571 6.54545454545455  C 3.14880952380952 6.54545454545455  3.73065476190476 6.78409090909091  4.20982142857143 7.26136363636364  Z M 22.8780691964286 14.0305397727273  C 22.9593563988095 14.1115056818182  23 14.2073863636364  23 14.3181818181818  L 23 16.7727272727273  C 23 16.8835227272727  22.9593563988095 16.9794034090909  22.8780691964286 17.0603693181818  C 22.7967819940476 17.1413352272727  22.7005208333333 17.1818181818182  22.5892857142857 17.1818181818182  L 6.98214285714286 17.1818181818182  C 6.87090773809524 17.1818181818182  6.77464657738095 17.1413352272727  6.693359375 17.0603693181818  C 6.61207217261905 16.9794034090909  6.57142857142857 16.8835227272727  6.57142857142857 16.7727272727273  L 6.57142857142857 14.3181818181818  C 6.57142857142857 14.2073863636364  6.61207217261905 14.1115056818182  6.693359375 14.0305397727273  C 6.77464657738095 13.9495738636364  6.87090773809524 13.9090909090909  6.98214285714286 14  L 22.5892857142857 14  C 22.7005208333333 13.9090909090909  22.7967819940476 13.9495738636364  22.8780691964286 14.0305397727273  Z M 4.20982142857143 0.715909090909091  C 4.68898809523809 1.19318181818182  4.92857142857143 1.77272727272727  4.92857142857143 2.45454545454545  C 4.92857142857143 3.13636363636364  4.68898809523809 3.71590909090909  4.20982142857143 4.19318181818182  C 3.73065476190476 4.67045454545454  3.14880952380952 4.90909090909091  2.46428571428571 4.90909090909091  C 1.77976190476191 4.90909090909091  1.19791666666667 4.67045454545454  0.71875 4.19318181818182  C 0.239583333333333 3.71590909090909  0 3.13636363636364  0 2.45454545454545  C 0 1.77272727272727  0.239583333333333 1.19318181818182  0.71875 0.715909090909091  C 1.19791666666667 0.238636363636362  1.77976190476191 0  2.46428571428571 0  C 3.14880952380952 0  3.73065476190476 0.238636363636362  4.20982142857143 0.715909090909091  Z M 22.8780691964286 7.48508522727273  C 22.9593563988095 7.56605113636364  23 7.66193181818182  23 7.77272727272727  L 23 10.2272727272727  C 23 10.3380681818182  22.9593563988095 10.4339488636364  22.8780691964286 10.5149147727273  C 22.7967819940476 10.5958806818182  22.7005208333333 10.6363636363636  22.5892857142857 10.6363636363636  L 6.98214285714286 10.6363636363636  C 6.87090773809524 10.6363636363636  6.77464657738095 10.5958806818182  6.693359375 10.5149147727273  C 6.61207217261905 10.4339488636364  6.57142857142857 10.3380681818182  6.57142857142857 10.2272727272727  L 6.57142857142857 7.77272727272727  C 6.57142857142857 7.66193181818182  6.61207217261905 7.56605113636364  6.693359375 7.48508522727273  C 6.77464657738095 7.40411931818182  6.87090773809524 7.36363636363636  6.98214285714286 7.36363636363636  L 22.5892857142857 7.36363636363636  C 22.7005208333333 7.36363636363636  22.7967819940476 7.40411931818182  22.8780691964286 7.48508522727273  Z M 22.8780691964286 0.939630681818183  C 22.9593563988095 1.02059659090909  23 1.11647727272727  23 1.22727272727273  L 23 3.68181818181818  C 23 3.79261363636363  22.9593563988095 3.88849431818182  22.8780691964286 3.96946022727273  C 22.7967819940476 4.05042613636364  22.7005208333333 4.09090909090909  22.5892857142857 4  L 6.98214285714286 4  C 6.87090773809524 4.09090909090909  6.77464657738095 4.05042613636364  6.693359375 3.96946022727273  C 6.61207217261905 3.88849431818182  6.57142857142857 3.79261363636363  6.57142857142857 3.68181818181818  L 6.57142857142857 1.22727272727273  C 6.57142857142857 1.11647727272727  6.61207217261905 1.02059659090909  6.693359375 0.939630681818183  C 6.77464657738095 0.858664772727271  6.87090773809524 0.818181818181817  6.98214285714286 0.818181818181817  L 22.5892857142857 0.818181818181817  C 22.7005208333333 0.818181818181817  22.7967819940476 0.858664772727271  22.8780691964286 0.939630681818183  Z " fill-rule="evenodd" />
    </mask>
  </defs>
  <g transform="matrix(1 0 0 1 -385 -717 )">
    <path d="M 4.20982142857143 13.8068181818182  C 4.68898809523809 14.2840909090909  4.92857142857143 14.8636363636364  4.92857142857143 15.5454545454545  C 4.92857142857143 16.2272727272727  4.68898809523809 16.8068181818182  4.20982142857143 17.2840909090909  C 3.73065476190476 17.7613636363636  3.14880952380952 18  2.46428571428571 18  C 1.77976190476191 18  1.19791666666667 17.7613636363636  0.71875 17.2840909090909  C 0.239583333333333 16.8068181818182  0 16.2272727272727  0 15.5454545454545  C 0 14.8636363636364  0.239583333333333 14.2840909090909  0.71875 13.8068181818182  C 1.19791666666667 13.3295454545455  1.77976190476191 13.0909090909091  2.46428571428571 13.0909090909091  C 3.14880952380952 13.0909090909091  3.73065476190476 13.3295454545455  4.20982142857143 13.8068181818182  Z M 4.20982142857143 7.26136363636364  C 4.68898809523809 7.73863636363636  4.92857142857143 8.31818181818182  4.92857142857143 9  C 4.92857142857143 9.68181818181818  4.68898809523809 10.2613636363636  4.20982142857143 10.7386363636364  C 3.73065476190476 11.2159090909091  3.14880952380952 11.4545454545455  2.46428571428571 11.4545454545455  C 1.77976190476191 11.4545454545455  1.19791666666667 11.2159090909091  0.71875 10.7386363636364  C 0.239583333333333 10.2613636363636  0 9.68181818181818  0 9  C 0 8.31818181818182  0.239583333333333 7.73863636363636  0.71875 7.26136363636364  C 1.19791666666667 6.78409090909091  1.77976190476191 6.54545454545455  2.46428571428571 6.54545454545455  C 3.14880952380952 6.54545454545455  3.73065476190476 6.78409090909091  4.20982142857143 7.26136363636364  Z M 22.8780691964286 14.0305397727273  C 22.9593563988095 14.1115056818182  23 14.2073863636364  23 14.3181818181818  L 23 16.7727272727273  C 23 16.8835227272727  22.9593563988095 16.9794034090909  22.8780691964286 17.0603693181818  C 22.7967819940476 17.1413352272727  22.7005208333333 17.1818181818182  22.5892857142857 17.1818181818182  L 6.98214285714286 17.1818181818182  C 6.87090773809524 17.1818181818182  6.77464657738095 17.1413352272727  6.693359375 17.0603693181818  C 6.61207217261905 16.9794034090909  6.57142857142857 16.8835227272727  6.57142857142857 16.7727272727273  L 6.57142857142857 14.3181818181818  C 6.57142857142857 14.2073863636364  6.61207217261905 14.1115056818182  6.693359375 14.0305397727273  C 6.77464657738095 13.9495738636364  6.87090773809524 13.9090909090909  6.98214285714286 14  L 22.5892857142857 14  C 22.7005208333333 13.9090909090909  22.7967819940476 13.9495738636364  22.8780691964286 14.0305397727273  Z M 4.20982142857143 0.715909090909091  C 4.68898809523809 1.19318181818182  4.92857142857143 1.77272727272727  4.92857142857143 2.45454545454545  C 4.92857142857143 3.13636363636364  4.68898809523809 3.71590909090909  4.20982142857143 4.19318181818182  C 3.73065476190476 4.67045454545454  3.14880952380952 4.90909090909091  2.46428571428571 4.90909090909091  C 1.77976190476191 4.90909090909091  1.19791666666667 4.67045454545454  0.71875 4.19318181818182  C 0.239583333333333 3.71590909090909  0 3.13636363636364  0 2.45454545454545  C 0 1.77272727272727  0.239583333333333 1.19318181818182  0.71875 0.715909090909091  C 1.19791666666667 0.238636363636362  1.77976190476191 0  2.46428571428571 0  C 3.14880952380952 0  3.73065476190476 0.238636363636362  4.20982142857143 0.715909090909091  Z M 22.8780691964286 7.48508522727273  C 22.9593563988095 7.56605113636364  23 7.66193181818182  23 7.77272727272727  L 23 10.2272727272727  C 23 10.3380681818182  22.9593563988095 10.4339488636364  22.8780691964286 10.5149147727273  C 22.7967819940476 10.5958806818182  22.7005208333333 10.6363636363636  22.5892857142857 10.6363636363636  L 6.98214285714286 10.6363636363636  C 6.87090773809524 10.6363636363636  6.77464657738095 10.5958806818182  6.693359375 10.5149147727273  C 6.61207217261905 10.4339488636364  6.57142857142857 10.3380681818182  6.57142857142857 10.2272727272727  L 6.57142857142857 7.77272727272727  C 6.57142857142857 7.66193181818182  6.61207217261905 7.56605113636364  6.693359375 7.48508522727273  C 6.77464657738095 7.40411931818182  6.87090773809524 7.36363636363636  6.98214285714286 7.36363636363636  L 22.5892857142857 7.36363636363636  C 22.7005208333333 7.36363636363636  22.7967819940476 7.40411931818182  22.8780691964286 7.48508522727273  Z M 22.8780691964286 0.939630681818183  C 22.9593563988095 1.02059659090909  23 1.11647727272727  23 1.22727272727273  L 23 3.68181818181818  C 23 3.79261363636363  22.9593563988095 3.88849431818182  22.8780691964286 3.96946022727273  C 22.7967819940476 4.05042613636364  22.7005208333333 4.09090909090909  22.5892857142857 4  L 6.98214285714286 4  C 6.87090773809524 4.09090909090909  6.77464657738095 4.05042613636364  6.693359375 3.96946022727273  C 6.61207217261905 3.88849431818182  6.57142857142857 3.79261363636363  6.57142857142857 3.68181818181818  L 6.57142857142857 1.22727272727273  C 6.57142857142857 1.11647727272727  6.61207217261905 1.02059659090909  6.693359375 0.939630681818183  C 6.77464657738095 0.858664772727271  6.87090773809524 0.818181818181817  6.98214285714286 0.818181818181817  L 22.5892857142857 0.818181818181817  C 22.7005208333333 0.818181818181817  22.7967819940476 0.858664772727271  22.8780691964286 0.939630681818183  Z " fill-rule="nonzero" fill="#aaaaaa" stroke="none" fill-opacity="0" transform="matrix(1 0 0 1 385 717 )" />
    <path d="M 4.20982142857143 13.8068181818182  C 4.68898809523809 14.2840909090909  4.92857142857143 14.8636363636364  4.92857142857143 15.5454545454545  C 4.92857142857143 16.2272727272727  4.68898809523809 16.8068181818182  4.20982142857143 17.2840909090909  C 3.73065476190476 17.7613636363636  3.14880952380952 18  2.46428571428571 18  C 1.77976190476191 18  1.19791666666667 17.7613636363636  0.71875 17.2840909090909  C 0.239583333333333 16.8068181818182  0 16.2272727272727  0 15.5454545454545  C 0 14.8636363636364  0.239583333333333 14.2840909090909  0.71875 13.8068181818182  C 1.19791666666667 13.3295454545455  1.77976190476191 13.0909090909091  2.46428571428571 13.0909090909091  C 3.14880952380952 13.0909090909091  3.73065476190476 13.3295454545455  4.20982142857143 13.8068181818182  Z " stroke-width="2" stroke="#aaaaaa" fill="none" transform="matrix(1 0 0 1 385 717 )" mask="url(#clip96)" />
    <path d="M 4.20982142857143 7.26136363636364  C 4.68898809523809 7.73863636363636  4.92857142857143 8.31818181818182  4.92857142857143 9  C 4.92857142857143 9.68181818181818  4.68898809523809 10.2613636363636  4.20982142857143 10.7386363636364  C 3.73065476190476 11.2159090909091  3.14880952380952 11.4545454545455  2.46428571428571 11.4545454545455  C 1.77976190476191 11.4545454545455  1.19791666666667 11.2159090909091  0.71875 10.7386363636364  C 0.239583333333333 10.2613636363636  0 9.68181818181818  0 9  C 0 8.31818181818182  0.239583333333333 7.73863636363636  0.71875 7.26136363636364  C 1.19791666666667 6.78409090909091  1.77976190476191 6.54545454545455  2.46428571428571 6.54545454545455  C 3.14880952380952 6.54545454545455  3.73065476190476 6.78409090909091  4.20982142857143 7.26136363636364  Z " stroke-width="2" stroke="#aaaaaa" fill="none" transform="matrix(1 0 0 1 385 717 )" mask="url(#clip96)" />
    <path d="M 22.8780691964286 14.0305397727273  C 22.9593563988095 14.1115056818182  23 14.2073863636364  23 14.3181818181818  L 23 16.7727272727273  C 23 16.8835227272727  22.9593563988095 16.9794034090909  22.8780691964286 17.0603693181818  C 22.7967819940476 17.1413352272727  22.7005208333333 17.1818181818182  22.5892857142857 17.1818181818182  L 6.98214285714286 17.1818181818182  C 6.87090773809524 17.1818181818182  6.77464657738095 17.1413352272727  6.693359375 17.0603693181818  C 6.61207217261905 16.9794034090909  6.57142857142857 16.8835227272727  6.57142857142857 16.7727272727273  L 6.57142857142857 14.3181818181818  C 6.57142857142857 14.2073863636364  6.61207217261905 14.1115056818182  6.693359375 14.0305397727273  C 6.77464657738095 13.9495738636364  6.87090773809524 13.9090909090909  6.98214285714286 14  L 22.5892857142857 14  C 22.7005208333333 13.9090909090909  22.7967819940476 13.9495738636364  22.8780691964286 14.0305397727273  Z " stroke-width="2" stroke="#aaaaaa" fill="none" transform="matrix(1 0 0 1 385 717 )" mask="url(#clip96)" />
    <path d="M 4.20982142857143 0.715909090909091  C 4.68898809523809 1.19318181818182  4.92857142857143 1.77272727272727  4.92857142857143 2.45454545454545  C 4.92857142857143 3.13636363636364  4.68898809523809 3.71590909090909  4.20982142857143 4.19318181818182  C 3.73065476190476 4.67045454545454  3.14880952380952 4.90909090909091  2.46428571428571 4.90909090909091  C 1.77976190476191 4.90909090909091  1.19791666666667 4.67045454545454  0.71875 4.19318181818182  C 0.239583333333333 3.71590909090909  0 3.13636363636364  0 2.45454545454545  C 0 1.77272727272727  0.239583333333333 1.19318181818182  0.71875 0.715909090909091  C 1.19791666666667 0.238636363636362  1.77976190476191 0  2.46428571428571 0  C 3.14880952380952 0  3.73065476190476 0.238636363636362  4.20982142857143 0.715909090909091  Z " stroke-width="2" stroke="#aaaaaa" fill="none" transform="matrix(1 0 0 1 385 717 )" mask="url(#clip96)" />
    <path d="M 22.8780691964286 7.48508522727273  C 22.9593563988095 7.56605113636364  23 7.66193181818182  23 7.77272727272727  L 23 10.2272727272727  C 23 10.3380681818182  22.9593563988095 10.4339488636364  22.8780691964286 10.5149147727273  C 22.7967819940476 10.5958806818182  22.7005208333333 10.6363636363636  22.5892857142857 10.6363636363636  L 6.98214285714286 10.6363636363636  C 6.87090773809524 10.6363636363636  6.77464657738095 10.5958806818182  6.693359375 10.5149147727273  C 6.61207217261905 10.4339488636364  6.57142857142857 10.3380681818182  6.57142857142857 10.2272727272727  L 6.57142857142857 7.77272727272727  C 6.57142857142857 7.66193181818182  6.61207217261905 7.56605113636364  6.693359375 7.48508522727273  C 6.77464657738095 7.40411931818182  6.87090773809524 7.36363636363636  6.98214285714286 7.36363636363636  L 22.5892857142857 7.36363636363636  C 22.7005208333333 7.36363636363636  22.7967819940476 7.40411931818182  22.8780691964286 7.48508522727273  Z " stroke-width="2" stroke="#aaaaaa" fill="none" transform="matrix(1 0 0 1 385 717 )" mask="url(#clip96)" />
    <path d="M 22.8780691964286 0.939630681818183  C 22.9593563988095 1.02059659090909  23 1.11647727272727  23 1.22727272727273  L 23 3.68181818181818  C 23 3.79261363636363  22.9593563988095 3.88849431818182  22.8780691964286 3.96946022727273  C 22.7967819940476 4.05042613636364  22.7005208333333 4.09090909090909  22.5892857142857 4  L 6.98214285714286 4  C 6.87090773809524 4.09090909090909  6.77464657738095 4.05042613636364  6.693359375 3.96946022727273  C 6.61207217261905 3.88849431818182  6.57142857142857 3.79261363636363  6.57142857142857 3.68181818181818  L 6.57142857142857 1.22727272727273  C 6.57142857142857 1.11647727272727  6.61207217261905 1.02059659090909  6.693359375 0.939630681818183  C 6.77464657738095 0.858664772727271  6.87090773809524 0.818181818181817  6.98214285714286 0.818181818181817  L 22.5892857142857 0.818181818181817  C 22.7005208333333 0.818181818181817  22.7967819940476 0.858664772727271  22.8780691964286 0.939630681818183  Z " stroke-width="2" stroke="#aaaaaa" fill="none" transform="matrix(1 0 0 1 385 717 )" mask="url(#clip96)" />
  </g>
</svg>