<?xml version="1.0" encoding="utf-8"?>
<svg version="1.1" xmlns:xlink="http://www.w3.org/1999/xlink" width="167px" height="167px" xmlns="http://www.w3.org/2000/svg">
  <g transform="matrix(1 0 0 1 -434 -215 )">
    <path d="M 0 83.5  C 4.7579086480399 83.5  9.39962990624544 83.1317753491406  13.9251637853291 82.3953260475605  C 13.9194990395539 82.7629120260558  13.9166666666665 83.131136676869  13.9166666666665 83.5  C 13.9166666666665 92.9227430555555  15.7649739583335 101.9287109375  19.4615885416665 110.517903645833  C 23.158203125 119.107096354167  28.1051432291665 126.500325520833  34.3024088541665 132.697591145833  C 40.4996744791665 138.894856770833  47.8929036458335 143.841796875  56.4820963541665 147.538411458333  C 65.0712890625 151.235026041667  74.0772569444445 153.083333333333  83.5 153.083333333333  C 92.9227430555555 153.083333333333  101.9287109375 151.235026041667  110.517903645833 147.538411458333  C 119.107096354167 143.841796875  126.500325520833 138.894856770833  132.697591145833 132.697591145833  C 138.894856770833 126.500325520833  143.841796875 119.107096354167  147.538411458333 110.517903645833  C 151.235026041667 101.9287109375  153.083333333333 92.9227430555555  153.083333333333 83.5  C 153.083333333333 74.0772569444445  151.235026041667 65.0712890625  147.538411458333 56.4820963541667  C 143.841796875 47.8929036458333  138.894856770833 40.4996744791667  132.697591145833 34.3024088541667  C 126.500325520833 28.1051432291667  119.107096354167 23.158203125  110.517903645833 19.4615885416667  C 101.9287109375 15.7649739583333  92.9227430555555 13.9166666666667  83.5 13.9166666666667  C 83.1311366768688 13.9166666666667  82.7629120260556 13.9194990395543  82.3953260474217 13.9251637746168  C 83.1317753491404 9.39962990624544  83.5 4.7579086480399  83.5 0  C 98.6488715277779 0  112.619900173611 3.73285590277776  125.4130859375 11.1985677083333  C 138.206271701389 18.6642795138888  148.335720486111 28.793728298611  155.801432291667 41.5869140625  C 163.267144097222 54.380099826389  167 68.3511284722222  167 83.5  C 167 98.6488715277778  163.267144097222 112.619900173611  155.801432291667 125.4130859375  C 148.335720486111 138.206271701389  138.206271701389 148.335720486111  125.4130859375 155.801432291667  C 112.619900173611 163.267144097222  98.6488715277779 167  83.5 167  C 68.3511284722221 167  54.380099826389 163.267144097222  41.5869140625 155.801432291667  C 28.793728298611 148.335720486111  18.664279513889 138.206271701389  11.1985677083335 125.4130859375  C 3.73285590277795 112.619900173611  0 98.6488715277778  0 83.5  Z " fill-rule="nonzero" fill="#f59a23" stroke="none" transform="matrix(1 0 0 1 434 215 )" />
  </g>
</svg>