<?xml version="1.0" encoding="utf-8"?>
<svg version="1.1" xmlns:xlink="http://www.w3.org/1999/xlink" width="189px" height="144px" xmlns="http://www.w3.org/2000/svg">
  <g transform="matrix(1 0 0 1 -428 -1071 )">
    <path d="M 36 72  L 59 72  L 59 120  L 36 120  L 36 72  Z M 71 24  L 94 24  L 94 120  L 71 120  L 71 24  Z M 12 132  L 189 132  L 189 144  L 0 144  L 0 0  L 12 0  L 12 132  Z M 106 48  L 130 48  L 130 120  L 106 120  L 106 48  Z M 141 12  L 165 12  L 165 120  L 141 120  L 141 12  Z " fill-rule="nonzero" fill="#f59a23" stroke="none" transform="matrix(1 0 0 1 428 1071 )" />
  </g>
</svg>