<?xml version="1.0" encoding="utf-8"?>
<svg version="1.1" xmlns:xlink="http://www.w3.org/1999/xlink" width="22px" height="19px" xmlns="http://www.w3.org/2000/svg">
  <g transform="matrix(1 0 0 1 -294 -728 )">
    <path d="M 21.1141826923077 6.30184659090909  C 21.7047275641026 7.56131628787879  22 8.87026515151515  22 10.2286931818182  C 22 11.7220643939394  21.7355769230769 13.1344696969697  21.2067307692308 14.4659090909091  L 20.9423076923077 15.1271306818182  L 18.4963942307692 15.5724431818182  C 18.302483974359 16.3191287878788  17.9036458333333 16.9331202651515  17.2998798076923 17.4144176136364  C 16.6961137820513 17.8957149621212  16.0064102564103 18.1363636363636  15.2307692307692 18.1363636363636  L 15.2307692307692 18.5681818181818  C 15.2307692307692 18.6941287878788  15.1911057692308 18.7975852272727  15.1117788461538 18.8785511363636  C 15.0324519230769 18.9595170454545  14.9310897435897 19  14.8076923076923 19  L 13.9615384615385 19  C 13.838141025641 19  13.7367788461538 18.9595170454545  13.6574519230769 18.8785511363636  C 13.578125 18.7975852272727  13.5384615384615 18.6941287878788  13.5384615384615 18.5681818181818  L 13.5384615384615 10.7954545454545  C 13.5384615384615 10.6695075757576  13.578125 10.5660511363636  13.6574519230769 10.4850852272727  C 13.7367788461538 10.4041193181818  13.838141025641 10.3636363636364  13.9615384615385 10.3636363636364  L 14.8076923076923 10.3636363636364  C 14.9310897435897 10.3636363636364  15.0324519230769 10.4041193181818  15.1117788461538 10.4850852272727  C 15.1911057692308 10.5660511363636  15.2307692307692 10.6695075757576  15.2307692307692 10.7954545454545  L 15.2307692307692 11.2272727272727  C 15.8565705128205 11.2272727272727  16.4294871794872 11.3869554924242  16.9495192307692 11.7063210227273  C 17.4695512820513 12.0256865530303  17.8794070512821 12.4552556818182  18.1790865384615 12.9950284090909  L 19.078125 12.8330965909091  C 19.333733974359 11.9784564393939  19.4615384615385 11.110321969697  19.4615384615385 10.2286931818182  C 19.4615384615385 8.89725378787879  19.0737179487179 7.6422821969697  18.2980769230769 6.46377840909091  C 17.5224358974359 5.28527462121212  16.4801682692308 4.34517045454545  15.1712740384615 3.64346590909091  C 13.8623798076923 2.94176136363636  12.4719551282051 2.59090909090909  11 2.59090909090909  C 9.52804487179487 2.59090909090909  8.13762019230769 2.94176136363636  6.82872596153846 3.64346590909091  C 5.51983173076923 4.34517045454545  4.4775641025641 5.28527462121212  3.70192307692308 6.46377840909091  C 2.92628205128205 7.6422821969697  2.53846153846154 8.89725378787879  2.53846153846154 10.2286931818182  C 2.53846153846154 11.110321969697  2.66626602564103 11.9784564393939  2.921875 12.8330965909091  L 3.82091346153846 12.9950284090909  C 4.12059294871795 12.4552556818182  4.53044871794872 12.0256865530303  5.05048076923077 11.7063210227273  C 5.57051282051282 11.3869554924242  6.14342948717949 11.2272727272727  6.76923076923077 11.2272727272727  L 6.76923076923077 10.7954545454545  C 6.76923076923077 10.6695075757576  6.80889423076923 10.5660511363636  6.88822115384615 10.4850852272727  C 6.96754807692308 10.4041193181818  7.06891025641026 10.3636363636364  7.19230769230769 10.3636363636364  L 8.03846153846154 10.3636363636364  C 8.16185897435897 10.3636363636364  8.26322115384616 10.4041193181818  8.34254807692308 10.4850852272727  C 8.421875 10.5660511363636  8.46153846153846 10.6695075757576  8.46153846153846 10.7954545454545  L 8.46153846153846 18.5681818181818  C 8.46153846153846 18.6941287878788  8.421875 18.7975852272727  8.34254807692308 18.8785511363636  C 8.26322115384616 18.9595170454545  8.16185897435897 19  8.03846153846154 19  L 7.19230769230769 19  C 7.06891025641026 19  6.96754807692308 18.9595170454545  6.88822115384615 18.8785511363636  C 6.80889423076923 18.7975852272727  6.76923076923077 18.6941287878788  6.76923076923077 18.5681818181818  L 6.76923076923077 18.1363636363636  C 5.99358974358974 18.1363636363636  5.30388621794872 17.8957149621212  4.70012019230769 17.4144176136364  C 4.09635416666667 16.9331202651515  3.69751602564103 16.3191287878788  3.50360576923077 15.5724431818182  L 1.05769230769231 15.1271306818182  L 0.793269230769231 14.4659090909091  C 0.264423076923077 13.1344696969697  0 11.7220643939394  0 10.2286931818182  C 0 8.87026515151515  0.295272435897436 7.56131628787879  0.885817307692308 6.30184659090909  C 1.47636217948718 5.04237689393939  2.26522435897436 3.95158617424242  3.25240384615385 3.02947443181818  C 4.23958333333333 2.10736268939394  5.41185897435897 1.37192234848485  6.76923076923077 0.823153409090909  C 8.12660256410256 0.274384469696969  9.53685897435897 0  11 0  C 12.463141025641 0  13.8733974358974 0.274384469696969  15.2307692307692 0.823153409090909  C 16.588141025641 1.37192234848485  17.7604166666667 2.10736268939394  18.7475961538462 3.02947443181818  C 19.7347756410256 3.95158617424242  20.5236378205128 5.04237689393939  21.1141826923077 6.30184659090909  Z " fill-rule="nonzero" fill="#f59a23" stroke="none" transform="matrix(1 0 0 1 294 728 )" />
  </g>
</svg>