<?xml version="1.0" encoding="utf-8"?>
<svg version="1.1" xmlns:xlink="http://www.w3.org/1999/xlink" width="26px" height="19px" xmlns="http://www.w3.org/2000/svg">
  <g transform="matrix(1 0 0 1 -307 -474 )">
    <path d="M 25.5303225806452 2.62289562289562  C 25.8434408602151 2.92143658810325  26 3.28395061728395  26 3.71043771043771  C 26 4.13692480359147  25.8434408602151 4.49943883277216  25.5303225806452 4.7979797979798  L 13.3858064516129 16.3771043771044  L 11.1045161290323 18.5521885521886  C 10.7913978494624 18.8507295173962  10.4111827956989 19  9.96387096774194 19  C 9.51655913978495 19  9.13634408602151 18.8507295173962  8.82322580645161 18.5521885521886  L 6.54193548387097 16.3771043771044  L 0.469677419354839 10.5875420875421  C 0.156559139784946 10.2890011223345  0 9.92648709315376  0 9.5  C 0 9.07351290684624  0.156559139784946 8.71099887766554  0.469677419354839 8.41245791245791  L 2.75096774193548 6.23737373737374  C 3.06408602150538 5.9388327721661  3.44430107526882 5.78956228956229  3.89161290322581 5.78956228956229  C 4.3389247311828 5.78956228956229  4.71913978494624 5.9388327721661  5.03225806451613 6.23737373737374  L 9.96387096774194 10.9553872053872  L 20.9677419354839 0.447811447811448  C 21.2808602150538 0.149270482603815  21.6610752688172 0  22.1083870967742 0  C 22.5556989247312 0  22.9359139784946 0.149270482603815  23.2490322580645 0.447811447811448  L 25.5303225806452 2.62289562289562  Z " fill-rule="nonzero" fill="#ffffff" stroke="none" transform="matrix(1 0 0 1 307 474 )" />
  </g>
</svg>