<?xml version="1.0" encoding="utf-8"?>
<svg version="1.1" xmlns:xlink="http://www.w3.org/1999/xlink" width="10px" height="10px" xmlns="http://www.w3.org/2000/svg">
  <g transform="matrix(1 0 0 1 -324 -114 )">
    <path d="M 1.37834821428571 8.39192708333333  C 1.41183035714286 8.43098958333333  1.42857142857143 8.48090277777778  1.42857142857143 8.54166666666667  L 1.42857142857143 9.79166666666667  C 1.42857142857143 9.85243055555556  1.41183035714286 9.90234375  1.37834821428571 9.94140625  C 1.34486607142857 9.98046875  1.30208333333333 10  1.25 10  L 0.178571428571429 10  C 0.126488095238095 10  0.0837053571428572 9.98046875  0.0502232142857143 9.94140625  C 0.0167410714285714 9.90234375  0 9.85243055555556  0 9.79166666666667  L 0 8.54166666666667  C 0 8.48090277777778  0.0167410714285714 8.43098958333333  0.0502232142857143 8.39192708333333  C 0.0837053571428572 8.35286458333333  0.126488095238095 8.33333333333333  0.178571428571429 8.33333333333333  L 1.25 8.33333333333333  C 1.30208333333333 8.33333333333333  1.34486607142857 8.35286458333333  1.37834821428571 8.39192708333333  Z M 3.52120535714286 7.55859375  C 3.5546875 7.59765625  3.57142857142857 7.64756944444445  3.57142857142857 7.70833333333333  L 3.57142857142857 9.79166666666667  C 3.57142857142857 9.85243055555556  3.5546875 9.90234375  3.52120535714286 9.94140625  C 3.48772321428571 9.98046875  3.44494047619048 10  3.39285714285714 10  L 2.32142857142857 10  C 2.26934523809524 10  2.2265625 9.98046875  2.19308035714286 9.94140625  C 2.15959821428571 9.90234375  2.14285714285714 9.85243055555556  2.14285714285714 9.79166666666667  L 2.14285714285714 7.70833333333333  C 2.14285714285714 7.64756944444445  2.15959821428571 7.59765625  2.19308035714286 7.55859375  C 2.2265625 7.51953125  2.26934523809524 7.5  2.32142857142857 7.5  L 3.39285714285714 7.5  C 3.44494047619048 7.5  3.48772321428571 7.51953125  3.52120535714286 7.55859375  Z M 5.6640625 5.89192708333333  C 5.69754464285714 5.93098958333333  5.71428571428571 5.98090277777778  5.71428571428571 6.04166666666667  L 5.71428571428571 9.79166666666667  C 5.71428571428571 9.85243055555556  5.69754464285714 9.90234375  5.6640625 9.94140625  C 5.63058035714286 9.98046875  5.58779761904762 10  5.53571428571429 10  L 4.46428571428571 10  C 4.41220238095238 10  4.36941964285714 9.98046875  4.3359375 9.94140625  C 4.30245535714286 9.90234375  4.28571428571429 9.85243055555556  4.28571428571429 9.79166666666667  L 4.28571428571429 6.04166666666667  C 4.28571428571429 5.98090277777778  4.30245535714286 5.93098958333333  4.3359375 5.89192708333333  C 4.36941964285714 5.85286458333333  4.41220238095238 5.83333333333333  4.46428571428571 5.83333333333333  L 5.53571428571429 5.83333333333333  C 5.58779761904762 5.83333333333333  5.63058035714286 5.85286458333333  5.6640625 5.89192708333333  Z M 7.80691964285714 3.39192708333333  C 7.84040178571429 3.43098958333333  7.85714285714286 3.48090277777778  7.85714285714286 3.54166666666667  L 7.85714285714286 9.79166666666667  C 7.85714285714286 9.85243055555556  7.84040178571429 9.90234375  7.80691964285714 9.94140625  C 7.7734375 9.98046875  7.73065476190476 10  7.67857142857143 10  L 6.60714285714286 10  C 6.55505952380952 10  6.51227678571429 9.98046875  6.47879464285714 9.94140625  C 6.4453125 9.90234375  6.42857142857143 9.85243055555556  6.42857142857143 9.79166666666667  L 6.42857142857143 3.54166666666667  C 6.42857142857143 3.48090277777778  6.4453125 3.43098958333333  6.47879464285714 3.39192708333333  C 6.51227678571429 3.35286458333333  6.55505952380952 3.33333333333333  6.60714285714286 3.33333333333333  L 7.67857142857143 3.33333333333333  C 7.73065476190476 3.33333333333333  7.7734375 3.35286458333333  7.80691964285714 3.39192708333333  Z M 9.94977678571429 0.05859375  C 9.98325892857143 0.09765625  10 0.147569444444443  10 0.208333333333334  L 10 9.79166666666667  C 10 9.85243055555556  9.98325892857143 9.90234375  9.94977678571429 9.94140625  C 9.91629464285714 9.98046875  9.87351190476191 10  9.82142857142857 10  L 8.75 10  C 8.69791666666667 10  8.65513392857143 9.98046875  8.62165178571429 9.94140625  C 8.58816964285714 9.90234375  8.57142857142857 9.85243055555556  8.57142857142857 9.79166666666667  L 8.57142857142857 0.208333333333334  C 8.57142857142857 0.147569444444443  8.58816964285714 0.09765625  8.62165178571429 0.05859375  C 8.65513392857143 0.01953125  8.69791666666667 0  8.75 0  L 9.82142857142857 0  C 9.87351190476191 0  9.91629464285714 0.01953125  9.94977678571429 0.05859375  Z " fill-rule="nonzero" fill="#ffffff" stroke="none" transform="matrix(1 0 0 1 324 114 )" />
  </g>
</svg>