<?xml version="1.0" encoding="utf-8"?>
<svg version="1.1" xmlns:xlink="http://www.w3.org/1999/xlink" width="20px" height="12px" xmlns="http://www.w3.org/2000/svg">
  <g transform="matrix(1 0 0 1 -87 -193 )">
    <path d="M 2.5 0.600000000000001  L 2.5 7  L 19.375 7  C 19.5442708333333 7.2  19.6907552083333 7.259375  19.814453125 7.378125  C 19.9381510416667 7.496875  20 7.6375  20 7.8  L 20 12  L 17.5 12  L 17.5 9.6  L 2.5 9.6  L 2.5 12  L 0 12  L 0 0.600000000000001  C 0 0.437499999999999  0.0618489583333333 0.296874999999999  0.185546875 0.178125000000001  C 0.309244791666667 0.0593749999999993  0.455729166666667 0  0.625 0  L 1.875 0  C 2.04427083333333 0  2.19075520833333 0.0593749999999993  2.314453125 0.178125000000001  C 2.43815104166667 0.296874999999999  2.5 0.437499999999999  2.5 0.600000000000001  Z M 7.392578125 5.896875  C 7.880859375 5.428125  8.125 4.8625  8.125 4.2  C 8.125 3.5375  7.880859375 2.971875  7.392578125 2.503125  C 6.904296875 2.034375  6.31510416666667 1.8  5.625 1.8  C 4.93489583333333 1.8  4.345703125 2.034375  3.857421875 2.503125  C 3.369140625 2.971875  3.125 3.5375  3.125 4.2  C 3.125 4.8625  3.369140625 5.428125  3.857421875 5.896875  C 4.345703125 6.365625  4.93489583333333 6.6  5.625 6.6  C 6.31510416666667 6.6  6.904296875 6.365625  7.392578125 5.896875  Z M 8.75 6.6  L 20 6.6  L 20 6  C 20 5.00625  19.6337890625 4.1578125  18.9013671875 3.4546875  C 18.1689453125 2.7515625  17.28515625 2.4  16.25 2.4  L 9.375 2.4  C 9.20572916666667 2.4  9.05924479166667 2.459375  8.935546875 2.578125  C 8.81184895833333 2.696875  8.75 2.8375  8.75 3  L 8.75 6.6  Z " fill-rule="nonzero" fill="#ffffff" stroke="none" transform="matrix(1 0 0 1 87 193 )" />
  </g>
</svg>