<?xml version="1.0" encoding="utf-8"?>
<svg version="1.1" xmlns:xlink="http://www.w3.org/1999/xlink" width="35px" height="20px" xmlns="http://www.w3.org/2000/svg">
  <g transform="matrix(1 0 0 1 -238 -710 )">
    <path d="M 34.6492985971944 16.3573883161512  C 34.8830995323981 16.5864833906071  35 16.8499427262314  35 17.1477663230241  C 35 17.4455899198167  34.8830995323981 17.709049255441  34.6492985971944 17.9381443298969  L 32.8957915831663 19.6563573883161  C 32.6619906479626 19.885452462772  32.3931195724783 20  32.0891783567134 20  C 31.7852371409486 20  31.5163660654643 19.885452462772  31.2825651302605 19.6563573883161  L 17.5 6.15120274914089  L 3.71743486973948 19.6563573883161  C 3.48363393453574 19.885452462772  3.21476285905144 20  2.91082164328657 20  C 2.60688042752171 20  2.33800935203741 19.885452462772  2.10420841683367 19.6563573883161  L 0.350701402805611 17.9381443298969  C 0.116900467601871 17.709049255441  0 17.4455899198167  0 17.1477663230241  C 0 16.8499427262314  0.116900467601871 16.5864833906071  0.350701402805611 16.3573883161512  L 16.6933867735471 0.34364261168385  C 16.9271877087508 0.114547537227947  17.1960587842351 0  17.5 0  C 17.8039412157649 0  18.0728122912492 0.114547537227947  18.3066132264529 0.34364261168385  L 34.6492985971944 16.3573883161512  Z " fill-rule="nonzero" fill="#f2f2f2" stroke="none" transform="matrix(1 0 0 1 238 710 )" />
  </g>
</svg>